<?xml version="1.0" encoding="UTF-8" standalone="no"?>
<svg width="79px" height="40px" viewBox="0 0 79 40" version="1.1" xmlns="http://www.w3.org/2000/svg" xmlns:xlink="http://www.w3.org/1999/xlink" xmlns:sketch="http://www.bohemiancoding.com/sketch/ns">
    <!-- Generator: Sketch 3.3.3 (12081) - http://www.bohemiancoding.com/sketch -->
    <title>Google Logo</title>
    <desc>Created with Sketch.</desc>
    <defs></defs>
    <g id="Page-1" stroke="none" stroke-width="1" fill="none" fill-rule="evenodd" sketch:type="MSPage">
        <path d="M9.98,27.995 C4.56,27.995 0,23.575 0,18.155 C0,12.735 4.56,8.315 9.98,8.315 C12.98,8.315 15.12,9.495 16.73,11.025 L14.83,12.925 C13.68,11.845 12.12,11.005 9.98,11.005 C6.02,11.005 2.92,14.195 2.92,18.155 C2.92,22.115 6.02,25.305 9.98,25.305 C12.55,25.305 14.01,24.275 14.95,23.335 C15.72,22.565 16.22,21.465 16.41,19.955 L9.98,19.955 L9.98,17.275 L19.03,17.275 C19.13,17.755 19.17,18.335 19.17,18.955 C19.17,20.975 18.62,23.465 16.84,25.245 C15.11,27.035 12.91,27.995 9.98,27.995 L9.98,27.995 Z M33.16,21.665 C33.16,25.315 30.36,28.005 26.92,28.005 C23.48,28.005 20.67,25.315 20.67,21.665 C20.67,17.995 23.47,15.325 26.92,15.325 C30.37,15.325 33.16,17.995 33.16,21.665 L33.16,21.665 Z M30.43,21.665 C30.43,19.385 28.8,17.825 26.92,17.825 C25.04,17.825 23.41,19.385 23.41,21.665 C23.41,23.925 25.04,25.505 26.92,25.505 C28.8,25.505 30.43,23.915 30.43,21.665 L30.43,21.665 Z M47.16,21.665 C47.16,25.315 44.36,28.005 40.91,28.005 C37.47,28.005 34.67,25.315 34.67,21.665 C34.67,17.995 37.47,15.325 40.91,15.325 C44.36,15.325 47.16,17.995 47.16,21.665 L47.16,21.665 Z M44.43,21.665 C44.43,19.385 42.8,17.825 40.92,17.825 C39.04,17.825 37.41,19.385 37.41,21.665 C37.41,23.925 39.04,25.505 40.92,25.505 C42.81,25.505 44.43,23.915 44.43,21.665 L44.43,21.665 Z M60.82,15.705 L60.82,27.085 C60.82,31.765 58.06,33.685 54.8,33.685 C51.73,33.685 49.88,31.625 49.18,29.945 L51.6,28.935 C52.03,29.965 53.09,31.195 54.79,31.195 C56.88,31.195 58.17,29.895 58.17,27.475 L58.17,26.565 L58.07,26.565 C57.45,27.335 56.25,28.005 54.73,28.005 C51.56,28.005 48.66,25.245 48.66,21.695 C48.66,18.115 51.56,15.335 54.73,15.335 C56.24,15.335 57.44,16.005 58.07,16.755 L58.17,16.755 L58.17,15.705 L60.82,15.705 L60.82,15.705 Z M58.37,21.685 C58.37,19.455 56.88,17.825 54.99,17.825 C53.07,17.825 51.46,19.455 51.46,21.685 C51.46,23.895 53.07,25.505 54.99,25.505 C56.88,25.505 58.37,23.895 58.37,21.685 L58.37,21.685 Z M65.69,8.985 L65.69,27.615 L62.91,27.615 L62.91,8.985 L65.69,8.985 L65.69,8.985 Z M76.64,23.755 L78.8,25.195 C78.1,26.225 76.42,28.005 73.52,28.005 C69.92,28.005 67.32,25.225 67.32,21.665 C67.32,17.895 69.94,15.325 73.21,15.325 C76.5,15.325 78.11,17.945 78.63,19.355 L78.92,20.075 L70.45,23.575 C71.1,24.845 72.11,25.495 73.52,25.495 C74.93,25.495 75.92,24.805 76.64,23.755 L76.64,23.755 Z M69.99,21.475 L75.66,19.125 C75.35,18.335 74.41,17.785 73.31,17.785 C71.89,17.775 69.92,19.025 69.99,21.475 L69.99,21.475 Z" id="Shape" fill-opacity="0.54" fill="#000000" sketch:type="MSShapeGroup"></path>
    </g>
</svg>